<svg width="24" height="25" viewBox="0 0 24 25" fill="none" xmlns="http://www.w3.org/2000/svg">
<path d="M12 0.5C11.0643 0.5 10.1535 0.607095 9.27979 0.810129C4.83668 1.83958 1.33958 5.33668 0.310129 9.77934C0.107095 10.6535 0 11.5643 0 12.5C0 19.1274 5.3726 24.5 12 24.5C12.9357 24.5 13.8465 24.3929 14.7207 24.1899C19.1633 23.1604 22.6604 19.6638 23.6903 15.2216C23.8934 14.3474 24.0004 13.4362 24.0004 12.5C24.0004 5.8726 18.6274 0.5 12 0.5ZM12 20.0149C11.1142 20.0149 10.2646 19.8619 9.47568 19.5803C7.35609 18.8244 5.67604 17.1444 4.92013 15.0248C4.63855 14.2358 4.4855 13.3858 4.4855 12.5C4.4855 8.34962 7.84962 4.98505 12 4.98505C12.8858 4.98505 13.7354 5.13811 14.5243 5.41968C16.6439 6.17559 18.3244 7.85565 19.0803 9.97523C19.3619 10.7642 19.5149 11.6142 19.5149 12.5C19.5149 16.6504 16.1504 20.0149 12 20.0149Z" fill="url(#paint0_linear_84_261)"/>
<path d="M12 7.65674C9.32529 7.65674 7.15662 9.82541 7.15662 12.5001C7.15662 15.1748 9.32529 17.3435 12 17.3435C14.6747 17.3435 16.8434 15.1748 16.8434 12.5001C16.8434 9.82541 14.6751 7.65674 12 7.65674ZM12 15.4287C10.3829 15.4287 9.07139 14.1177 9.07139 12.5001C9.07139 10.8825 10.3829 9.57151 12 9.57151C13.6171 9.57151 14.9286 10.8825 14.9286 12.5001C14.9286 14.1177 13.6176 15.4287 12 15.4287Z" fill="#FEFCFE"/>
<path d="M14.5243 5.41961C13.7354 5.13804 12.8858 4.98498 12 4.98498C7.84961 4.98498 4.48549 8.34955 4.48549 12.4999C4.48549 13.3857 4.63854 14.2358 4.92012 15.0247C3.96117 14.6624 3.06202 14.0952 2.29004 13.3232C1.2771 12.3103 0.617125 11.0782 0.31012 9.77927C1.33957 5.33661 4.83667 1.83951 9.27978 0.810059C10.5783 1.11706 11.8103 1.77704 12.8233 2.78998C13.5948 3.56151 14.162 4.46066 14.5243 5.41961Z" fill="url(#paint1_linear_84_261)"/>
<path d="M23.6903 15.2214C22.6604 19.6636 19.1633 23.1603 14.7206 24.1897C13.4221 23.8827 12.1901 23.2228 11.1771 22.2098C10.4052 21.4378 9.838 20.5387 9.47567 19.5802C10.2646 19.8618 11.1142 20.0148 12 20.0148C16.1504 20.0148 19.5149 16.6502 19.5149 12.4999C19.5149 11.6141 19.3619 10.764 19.0803 9.9751C20.0388 10.3374 20.938 10.9046 21.7099 11.6766C22.7229 12.6895 23.3833 13.9224 23.6903 15.2214Z" fill="url(#paint2_linear_84_261)"/>
<path d="M6.06425 20.9476C7.45125 20.9476 8.57563 19.8232 8.57563 18.4362C8.57563 17.0492 7.45125 15.9248 6.06425 15.9248C4.67726 15.9248 3.55288 17.0492 3.55288 18.4362C3.55288 19.8232 4.67726 20.9476 6.06425 20.9476Z" fill="url(#paint3_linear_84_261)"/>
<path d="M17.9581 9.05352C19.3451 9.05352 20.4694 7.92914 20.4694 6.54214C20.4694 5.15514 19.3451 4.03076 17.9581 4.03076C16.5711 4.03076 15.4467 5.15514 15.4467 6.54214C15.4467 7.92914 16.5711 9.05352 17.9581 9.05352Z" fill="url(#paint4_linear_84_261)"/>
<defs>
<linearGradient id="paint0_linear_84_261" x1="20.3704" y1="4.59058" x2="3.89023" y2="20.1635" gradientUnits="userSpaceOnUse">
<stop stop-color="#F38856"/>
<stop offset="0.23" stop-color="#F0625C"/>
<stop offset="1" stop-color="#5C3DAB"/>
</linearGradient>
<linearGradient id="paint1_linear_84_261" x1="11.2405" y1="2.53429" x2="1.86657" y2="11.8578" gradientUnits="userSpaceOnUse">
<stop stop-color="#F67986"/>
<stop offset="1" stop-color="#8951BA"/>
</linearGradient>
<linearGradient id="paint2_linear_84_261" x1="21.9616" y1="13.3129" x2="12.5877" y2="22.6369" gradientUnits="userSpaceOnUse">
<stop stop-color="#F67986"/>
<stop offset="1" stop-color="#8951BA"/>
</linearGradient>
<linearGradient id="paint3_linear_84_261" x1="7.89781" y1="16.7204" x2="4.23025" y2="20.1519" gradientUnits="userSpaceOnUse">
<stop stop-color="#A267B9"/>
<stop offset="1" stop-color="#704BB4"/>
</linearGradient>
<linearGradient id="paint4_linear_84_261" x1="19.4846" y1="5.11331" x2="16.9808" y2="7.45646" gradientUnits="userSpaceOnUse">
<stop stop-color="#F7A8A5"/>
<stop offset="0.97" stop-color="#D074C4"/>
<stop offset="1" stop-color="#CF76A9"/>
</linearGradient>
</defs>
</svg>
